<svg class="svg-icon" style="width: 1em; height: 1em;vertical-align: middle;fill: currentColor;overflow: hidden;" viewBox="0 0 1024 1024" version="1.1" xmlns="http://www.w3.org/2000/svg"><path d="M490.6 476.7c-76 0-137.9-61.9-137.9-137.9s61.9-137.9 137.9-137.9 137.9 61.9 137.9 137.9-61.8 137.9-137.9 137.9z m0-242.6c-57.7 0-104.6 47-104.6 104.6 0 57.7 46.9 104.7 104.6 104.7 57.7 0 104.6-47 104.6-104.6 0.1-57.7-46.8-104.7-104.6-104.7zM295.7 467.2c-2 0-4-0.3-6-1.1-23.5-9.1-43.7-24.9-58.2-45.7-14.9-21.3-22.8-46.4-22.8-72.4 0-69.8 56.8-126.6 126.6-126.6 9.2 0 16.6 7.5 16.6 16.6 0 9.2-7.4 16.6-16.6 16.6-51.5 0-93.3 41.8-93.3 93.3 0 38.3 24 73.3 59.7 87.1 8.6 3.3 12.8 13 9.5 21.5-2.5 6.7-8.9 10.7-15.5 10.7z m434.3 248c-9.2 0-16.6-7.4-16.6-16.6 0-71-32.7-136.2-89.8-178.7-7.4-5.5-8.9-15.9-3.4-23.3s15.9-8.9 23.3-3.4c31.3 23.3 57.3 54 75 88.7 18.7 36.3 28.1 75.6 28.1 116.7 0 9.1-7.5 16.6-16.6 16.6z m0 0" fill="#333333" /><path d="M171.2 645.9c-0.7 0-1.4-0.1-2.1-0.1-9.1-1.1-15.6-9.4-14.4-18.6 5.1-40.8 19.3-78.6 42.2-112.4 22-32.2 51.4-59.4 85.4-78.8 8-4.5 18.2-1.7 22.7 6.3s1.7 18.2-6.3 22.7c-61.9 35.2-102.4 95.8-111.1 166.3-0.9 8.5-8 14.6-16.4 14.6z m80.1 70.1c-9.2 0-16.6-7.5-16.6-16.6 0-34.5 6.8-68 20.2-99.6 12.9-30.5 31.3-57.9 54.9-81.3 23.5-23.5 50.9-42 81.3-54.9 31.6-13.4 65.1-20.2 99.6-20.2 9.2 0 16.6 7.4 16.6 16.6 0 9.2-7.5 16.6-16.6 16.6-122.8 0-222.7 99.9-222.7 222.7 0 9.2-7.5 16.7-16.7 16.7z m0 0" fill="#333333" /></svg>